<svg width="394" height="47" viewBox="0 0 394 47" fill="none" xmlns="http://www.w3.org/2000/svg">
<path d="M4.33594 20.25L4.45312 20.0156H15.5469C22.9427 20.0156 26.6667 20.0417 26.7188 20.0938C26.875 20.3542 26.9792 21.1224 27.0312 22.3984C27.0833 23.6745 27.0573 24.6771 26.9531 25.4062C26.8229 26.1354 26.7448 26.526 26.7188 26.5781H26.9922C27.1745 26.6042 27.4349 26.6302 27.7734 26.6562C28.112 26.6562 28.4766 26.6562 28.8672 26.6562C30.3255 26.6562 31.0938 26.6953 31.1719 26.7734C31.3281 27.0339 31.4323 27.8021 31.4844 29.0781C31.5365 30.3281 31.4974 31.3177 31.3672 32.0469C31.3151 32.3073 31.276 32.5417 31.25 32.75C31.224 32.9323 31.1979 33.0625 31.1719 33.1406C31.1719 33.1927 31.1719 33.2318 31.1719 33.2578C31.1198 33.3099 30.7292 33.3359 30 33.3359C29.2448 33.3359 28.8932 33.362 28.9453 33.4141C29.1536 33.7786 29.2578 34.8464 29.2578 36.6172C29.2578 38.4401 29.1536 39.5339 28.9453 39.8984C28.8672 39.9766 28.099 40.0156 26.6406 40.0156C26.25 40.0156 25.8854 40.0286 25.5469 40.0547C25.2083 40.0547 24.9479 40.0677 24.7656 40.0938H24.4922C24.7005 40.4583 24.8047 41.526 24.8047 43.2969C24.8047 45.1198 24.7005 46.2135 24.4922 46.5781C24.4401 46.6302 24.7917 46.6562 25.5469 46.6562C26.1979 46.6562 26.5755 46.7083 26.6797 46.8125C26.7839 46.9167 26.875 47.3333 26.9531 48.0625C27.0573 48.9479 27.0703 49.9766 26.9922 51.1484C26.9401 52.3203 26.849 53.0234 26.7188 53.2578C26.6667 53.3099 27.0182 53.3359 27.7734 53.3359C28.5026 53.3359 28.8932 53.362 28.9453 53.4141C29.0755 53.6484 29.1667 54.4167 29.2188 55.7188C29.2969 56.9948 29.2839 57.9583 29.1797 58.6094C29.1536 58.6615 29.1276 58.7917 29.1016 59C29.0755 59.2083 29.0625 59.3385 29.0625 59.3906C29.0104 59.7031 28.9714 59.8724 28.9453 59.8984L29.8828 60.0156H30C30.7292 60.0156 31.1198 60.0417 31.1719 60.0938C31.3021 60.3281 31.3932 61.0964 31.4453 62.3984C31.5234 63.6745 31.5104 64.638 31.4062 65.2891C31.3802 65.3672 31.3542 65.4974 31.3281 65.6797C31.3021 65.888 31.2891 66.0182 31.2891 66.0703C31.237 66.3568 31.1849 66.526 31.1328 66.5781C31.0807 66.6302 29.9479 66.6562 27.7344 66.6562L24.4141 66.6172L24.3359 66.3047C24.1536 65.6536 24.0625 64.625 24.0625 63.2188C24.0625 61.8125 24.1536 60.849 24.3359 60.3281L24.4141 60.0156L23.3203 59.9766L22.1875 59.9375L22.1094 59.625C21.9271 58.9479 21.8359 57.9193 21.8359 56.5391C21.8359 55.1328 21.9271 54.1693 22.1094 53.6484L22.2266 53.3359L21.0938 53.2969H19.9609L19.8828 52.9844C19.7005 52.3073 19.6094 51.2786 19.6094 49.8984C19.6094 48.4922 19.7005 47.5156 19.8828 46.9688L20 46.6562H15.5469H11.1328L11.2109 47.0078C11.3932 47.6328 11.4714 48.7526 11.4453 50.3672C11.4453 51.9557 11.3542 52.9062 11.1719 53.2188C11.1458 53.2448 11.1328 53.3099 11.1328 53.4141C11.1589 53.4922 11.1849 53.5833 11.2109 53.6875C11.3932 54.3125 11.4714 55.4323 11.4453 57.0469C11.4453 58.6354 11.3542 59.5859 11.1719 59.8984C11.1198 59.9505 11.1328 60.0938 11.2109 60.3281C11.3932 61.0052 11.4714 62.1641 11.4453 63.8047C11.4453 65.4453 11.3411 66.3698 11.1328 66.5781C11.0807 66.6302 9.94792 66.6562 7.73438 66.6562L4.41406 66.6172L4.33594 66.3047C4.15365 65.6536 4.0625 64.625 4.0625 63.2188C4.0625 61.8125 4.15365 60.849 4.33594 60.3281C4.38802 60.1198 4.38802 59.8854 4.33594 59.625C4.15365 58.9219 4.0625 57.8932 4.0625 56.5391C4.0625 55.1589 4.15365 54.1953 4.33594 53.6484C4.38802 53.4401 4.38802 53.2188 4.33594 52.9844C4.15365 52.2812 4.0625 51.2396 4.0625 49.8594C4.0625 48.4792 4.15365 47.5156 4.33594 46.9688C4.38802 46.7604 4.38802 46.5391 4.33594 46.3047C4.15365 45.6016 4.0625 44.5729 4.0625 43.2188C4.0625 41.8385 4.15365 40.875 4.33594 40.3281C4.38802 40.1198 4.38802 39.8854 4.33594 39.625C4.15365 38.9219 4.0625 37.8932 4.0625 36.5391C4.0625 35.1589 4.15365 34.1953 4.33594 33.6484C4.38802 33.4401 4.38802 33.2188 4.33594 32.9844C4.15365 32.2812 4.0625 31.2396 4.0625 29.8594C4.0625 28.4792 4.15365 27.5156 4.33594 26.9688C4.38802 26.7604 4.38802 26.5391 4.33594 26.3047C4.15365 25.5755 4.0625 24.5078 4.0625 23.1016C4.0625 21.6953 4.15365 20.7448 4.33594 20.25ZM22.1094 26.9688L22.2266 26.6562H16.6406C15.7031 26.6562 14.7917 26.6693 13.9062 26.6953C13.0208 26.6953 12.3307 26.7083 11.8359 26.7344C11.3672 26.7344 11.1458 26.7474 11.1719 26.7734C11.3542 27.0599 11.4453 27.9583 11.4453 29.4688C11.4714 30.9531 11.4062 32.0729 11.25 32.8281C11.1979 33.1667 11.1979 33.5052 11.25 33.8438C11.4323 34.625 11.5104 35.7578 11.4844 37.2422C11.4583 38.7266 11.3542 39.612 11.1719 39.8984C11.1458 39.9245 11.3672 39.9505 11.8359 39.9766C12.3307 39.9766 13.0208 39.9896 13.9062 40.0156C14.7917 40.0156 15.7031 40.0156 16.6406 40.0156H22.1875L22.1094 39.625C21.9271 38.9219 21.8359 37.8932 21.8359 36.5391C21.8359 35.1589 21.9271 34.1953 22.1094 33.6484C22.1615 33.4401 22.1615 33.2188 22.1094 32.9844C21.9271 32.2812 21.8359 31.2396 21.8359 29.8594C21.8359 28.4792 21.9271 27.5156 22.1094 26.9688ZM44.6094 33.5703L44.6875 33.3359H51.3672C55.7943 33.3359 58.0339 33.362 58.0859 33.4141C58.2422 33.6745 58.3464 34.4427 58.3984 35.7188C58.4505 36.9948 58.4245 37.9974 58.3203 38.7266C58.1901 39.4557 58.112 39.8464 58.0859 39.8984L58.2031 39.9375C58.2552 39.9375 58.3464 39.9505 58.4766 39.9766C58.6068 39.9766 58.763 39.9896 58.9453 40.0156C59.1276 40.0156 59.3229 40.0156 59.5312 40.0156C59.7656 40.0156 60 40.0156 60.2344 40.0156C61.7188 40.0156 62.487 40.0417 62.5391 40.0938C62.6953 40.3542 62.7995 41.1224 62.8516 42.3984C62.9036 43.6745 62.8776 44.6771 62.7734 45.4062C62.6432 46.1354 62.5651 46.526 62.5391 46.5781C62.487 46.6302 62.8385 46.6562 63.5938 46.6562C64.2969 46.6562 64.6875 46.6953 64.7656 46.7734C64.9219 47.0339 65.026 47.8021 65.0781 49.0781C65.1302 50.3281 65.0911 51.3177 64.9609 52.0469C64.9089 52.3073 64.8698 52.5417 64.8438 52.75C64.8177 52.9323 64.7917 53.0625 64.7656 53.1406C64.7656 53.1927 64.7656 53.2318 64.7656 53.2578C64.7135 53.3099 64.3229 53.3359 63.5938 53.3359C62.8385 53.3359 62.487 53.362 62.5391 53.4141C62.7474 53.7786 62.8516 54.8464 62.8516 56.6172C62.8516 58.4401 62.7474 59.5339 62.5391 59.8984C62.4609 59.9766 61.6927 60.0156 60.2344 60.0156C59.8438 60.0156 59.4792 60.0286 59.1406 60.0547C58.8021 60.0547 58.5417 60.0677 58.3594 60.0938H58.0859C58.2943 60.4583 58.3854 61.5781 58.3594 63.4531C58.3594 65.3281 58.2552 66.3698 58.0469 66.5781C57.9948 66.6302 55.7552 66.6562 51.3281 66.6562L44.6484 66.6172L44.5703 66.3047C44.388 65.6276 44.2969 64.5859 44.2969 63.1797C44.3229 61.7734 44.4271 60.8099 44.6094 60.2891L44.6875 60.0156L42.4609 59.9766L40.2344 59.9375L40.1172 59.625C39.9349 58.9479 39.8438 57.9193 39.8438 56.5391C39.8698 55.1328 39.974 54.1693 40.1562 53.6484L40.2344 53.3359L39.1406 53.2969H38.0078L37.9297 52.9844C37.5911 51.7865 37.526 50.1849 37.7344 48.1797C37.8125 47.3984 37.9036 46.9557 38.0078 46.8516C38.112 46.7214 38.4896 46.6562 39.1406 46.6562H40.2344L40.1562 46.3047C39.974 45.5755 39.8828 44.5078 39.8828 43.1016C39.8828 41.6953 39.974 40.7448 40.1562 40.25L40.2734 40.0156H42.4609H44.6875L44.5703 39.625C44.388 38.9219 44.2969 37.8672 44.2969 36.4609C44.3229 35.0286 44.4271 34.0651 44.6094 33.5703ZM55.7031 40.2891L55.8203 40.0156H51.3672C51.0286 40.0156 50.6901 40.0156 50.3516 40.0156C50.013 40.0156 49.7005 40.0156 49.4141 40.0156C49.1276 40.0156 48.8542 40.0286 48.5938 40.0547C48.3333 40.0547 48.099 40.0547 47.8906 40.0547C47.7083 40.0547 47.5391 40.0547 47.3828 40.0547C47.2266 40.0547 47.1094 40.0677 47.0312 40.0938H46.9531C47.1875 40.5104 47.3047 41.5781 47.3047 43.2969C47.3047 45.0677 47.1875 46.1615 46.9531 46.5781C46.901 46.6302 46.5234 46.6562 45.8203 46.6562C45.1172 46.6562 44.7656 46.6953 44.7656 46.7734C44.974 47.138 45.0781 48.1927 45.0781 49.9375C45.0781 51.7865 44.974 52.8932 44.7656 53.2578C44.7135 53.3099 45.0651 53.3359 45.8203 53.3359C46.5234 53.3359 46.901 53.362 46.9531 53.4141C47.1094 53.6745 47.2135 54.4427 47.2656 55.7188C47.3177 56.9948 47.2917 57.9974 47.1875 58.7266C47.0573 59.4557 46.9792 59.8464 46.9531 59.8984C46.9271 59.9245 47.1094 59.9505 47.5 59.9766C47.8906 59.9766 48.4375 59.9896 49.1406 60.0156C49.8698 60.0156 50.612 60.0156 51.3672 60.0156H55.7812L55.7031 59.625C55.3646 58.401 55.2995 56.8125 55.5078 54.8594C55.5859 54.0781 55.6771 53.6354 55.7812 53.5312C55.8854 53.401 56.263 53.3359 56.9141 53.3359H58.0078L57.9297 52.9844C57.7474 52.2812 57.6562 51.2396 57.6562 49.8594C57.6562 48.4792 57.7474 47.5156 57.9297 46.9688L58.0078 46.6953L56.9141 46.6562L55.7812 46.6172L55.7031 46.3047C55.5208 45.6536 55.4297 44.625 55.4297 43.2188C55.4297 41.8125 55.5208 40.8359 55.7031 40.2891ZM77.5781 20.25L77.6562 20.0156H83.2422C86.9141 20.0156 88.776 20.0417 88.8281 20.0938C88.8542 20.1198 88.8932 20.276 88.9453 20.5625C89.2839 22.4375 89.2839 24.2995 88.9453 26.1484C88.8932 26.513 88.8932 26.8516 88.9453 27.1641C89.0755 27.8411 89.1406 28.7917 89.1406 30.0156C89.1406 31.2135 89.0755 32.151 88.9453 32.8281C88.8932 33.1667 88.8932 33.5052 88.9453 33.8438C89.0755 34.5208 89.1406 35.4714 89.1406 36.6953C89.1406 37.9193 89.0755 38.8568 88.9453 39.5078C88.8932 39.8464 88.8932 40.1719 88.9453 40.4844C89.1016 41.2396 89.1667 42.3724 89.1406 43.8828C89.1146 45.3672 89.0104 46.2526 88.8281 46.5391C88.776 46.5911 88.8021 46.7474 88.9062 47.0078C89.0885 47.6328 89.1667 48.7526 89.1406 50.3672C89.1146 51.9557 89.0104 52.9062 88.8281 53.2188C88.776 53.2708 88.8021 53.4271 88.9062 53.6875C89.0885 54.3385 89.1667 55.4583 89.1406 57.0469C89.1146 58.6354 89.0104 59.5859 88.8281 59.8984L88.9844 59.9375C89.0885 59.9375 89.2448 59.9505 89.4531 59.9766C89.6615 59.9766 89.8958 59.9896 90.1562 60.0156C90.4167 60.0156 90.7161 60.0156 91.0547 60.0156C91.4193 60.0156 91.7708 60.0156 92.1094 60.0156C94.3229 60.0156 95.4557 60.0417 95.5078 60.0938C95.638 60.3281 95.7292 61.0964 95.7812 62.3984C95.8594 63.6745 95.8464 64.638 95.7422 65.2891C95.7161 65.3672 95.6901 65.4974 95.6641 65.6797C95.638 65.888 95.625 66.0182 95.625 66.0703C95.5729 66.3568 95.5208 66.526 95.4688 66.5781C95.4167 66.6302 92.0573 66.6562 85.3906 66.6562L75.3906 66.6172L75.3125 66.3047C75.1302 65.6276 75.0391 64.5729 75.0391 63.1406C75.0651 61.6823 75.1693 60.7188 75.3516 60.25L75.4688 60.0156H78.7891H82.1094L81.9922 59.625C81.8099 58.9219 81.7188 57.8932 81.7188 56.5391C81.7188 55.1589 81.8099 54.1953 81.9922 53.6484C82.0443 53.4401 82.0443 53.2188 81.9922 52.9844C81.8099 52.2812 81.7188 51.2396 81.7188 49.8594C81.7188 48.4792 81.8099 47.5156 81.9922 46.9688C82.0443 46.7604 82.0443 46.5391 81.9922 46.3047C81.8099 45.6016 81.7188 44.5729 81.7188 43.2188C81.7188 41.8385 81.8099 40.875 81.9922 40.3281C82.0443 40.1198 82.0443 39.8854 81.9922 39.625C81.8099 38.9219 81.7188 37.8932 81.7188 36.5391C81.7188 35.1589 81.8099 34.1953 81.9922 33.6484C82.0443 33.4401 82.0443 33.2188 81.9922 32.9844C81.8099 32.2812 81.7188 31.2396 81.7188 29.8594C81.7188 28.4792 81.8099 27.5156 81.9922 26.9688L82.1094 26.6562H79.8828L77.6172 26.6172L77.5391 26.3047C77.3568 25.6276 77.2656 24.5729 77.2656 23.1406C77.2917 21.6823 77.3958 20.7188 77.5781 20.25ZM110.859 20.25L110.938 20.0156H116.523C120.195 20.0156 122.057 20.0417 122.109 20.0938C122.135 20.1198 122.174 20.276 122.227 20.5625C122.565 22.4375 122.565 24.2995 122.227 26.1484C122.174 26.513 122.174 26.8516 122.227 27.1641C122.357 27.8411 122.422 28.7917 122.422 30.0156C122.422 31.2135 122.357 32.151 122.227 32.8281C122.174 33.1667 122.174 33.5052 122.227 33.8438C122.357 34.5208 122.422 35.4714 122.422 36.6953C122.422 37.9193 122.357 38.8568 122.227 39.5078C122.174 39.8464 122.174 40.1719 122.227 40.4844C122.383 41.2396 122.448 42.3724 122.422 43.8828C122.396 45.3672 122.292 46.2526 122.109 46.5391C122.057 46.5911 122.083 46.7474 122.188 47.0078C122.37 47.6328 122.448 48.7526 122.422 50.3672C122.396 51.9557 122.292 52.9062 122.109 53.2188C122.057 53.2708 122.083 53.4271 122.188 53.6875C122.37 54.3385 122.448 55.4583 122.422 57.0469C122.396 58.6354 122.292 59.5859 122.109 59.8984L122.266 59.9375C122.37 59.9375 122.526 59.9505 122.734 59.9766C122.943 59.9766 123.177 59.9896 123.438 60.0156C123.698 60.0156 123.997 60.0156 124.336 60.0156C124.701 60.0156 125.052 60.0156 125.391 60.0156C127.604 60.0156 128.737 60.0417 128.789 60.0938C128.919 60.3281 129.01 61.0964 129.062 62.3984C129.141 63.6745 129.128 64.638 129.023 65.2891C128.997 65.3672 128.971 65.4974 128.945 65.6797C128.919 65.888 128.906 66.0182 128.906 66.0703C128.854 66.3568 128.802 66.526 128.75 66.5781C128.698 66.6302 125.339 66.6562 118.672 66.6562L108.672 66.6172L108.594 66.3047C108.411 65.6276 108.32 64.5729 108.32 63.1406C108.346 61.6823 108.451 60.7188 108.633 60.25L108.75 60.0156H112.07H115.391L115.273 59.625C115.091 58.9219 115 57.8932 115 56.5391C115 55.1589 115.091 54.1953 115.273 53.6484C115.326 53.4401 115.326 53.2188 115.273 52.9844C115.091 52.2812 115 51.2396 115 49.8594C115 48.4792 115.091 47.5156 115.273 46.9688C115.326 46.7604 115.326 46.5391 115.273 46.3047C115.091 45.6016 115 44.5729 115 43.2188C115 41.8385 115.091 40.875 115.273 40.3281C115.326 40.1198 115.326 39.8854 115.273 39.625C115.091 38.9219 115 37.8932 115 36.5391C115 35.1589 115.091 34.1953 115.273 33.6484C115.326 33.4401 115.326 33.2188 115.273 32.9844C115.091 32.2812 115 31.2396 115 29.8594C115 28.4792 115.091 27.5156 115.273 26.9688L115.391 26.6562H113.164L110.898 26.6172L110.82 26.3047C110.638 25.6276 110.547 24.5729 110.547 23.1406C110.573 21.6823 110.677 20.7188 110.859 20.25ZM170.742 20.25L170.859 20.0156H175.273C178.216 20.0156 179.714 20.0417 179.766 20.0938C179.922 20.3542 180.026 21.1224 180.078 22.3984C180.13 23.6745 180.104 24.6771 180 25.4062C179.87 26.1354 179.792 26.526 179.766 26.5781C179.714 26.6302 180.065 26.6562 180.82 26.6562C181.523 26.6562 181.914 26.6953 181.992 26.7734C182.044 26.8255 182.096 26.9818 182.148 27.2422C182.487 29.0391 182.474 30.901 182.109 32.8281C182.057 33.1927 182.057 33.5312 182.109 33.8438C182.292 34.625 182.37 35.7578 182.344 37.2422C182.318 38.7266 182.201 39.612 181.992 39.8984L182.109 39.9375C182.161 39.9375 182.253 39.9505 182.383 39.9766C182.539 39.9766 182.695 39.9896 182.852 40.0156C183.034 40.0156 183.242 40.0156 183.477 40.0156C183.711 40.0156 183.945 40.0156 184.18 40.0156H186.367L186.289 39.625C186.107 38.9219 186.016 37.8932 186.016 36.5391C186.016 35.1589 186.107 34.1953 186.289 33.6484C186.341 33.4401 186.341 33.2188 186.289 32.9844C185.951 31.7604 185.885 30.1589 186.094 28.1797C186.172 27.3984 186.263 26.9557 186.367 26.8516C186.471 26.7214 186.849 26.6562 187.5 26.6562H188.594L188.516 26.3047C188.333 25.5755 188.242 24.5078 188.242 23.1016C188.242 21.6953 188.333 20.7448 188.516 20.25L188.633 20.0156H193.086C196.029 20.0156 197.526 20.0417 197.578 20.0938C197.604 20.1198 197.643 20.276 197.695 20.5625C198.034 22.3594 198.021 24.2214 197.656 26.1484C197.604 26.513 197.604 26.8516 197.656 27.1641C197.786 27.8411 197.852 28.7917 197.852 30.0156C197.852 31.2135 197.786 32.151 197.656 32.8281C197.604 33.1667 197.604 33.5052 197.656 33.8438C197.812 34.599 197.878 35.7318 197.852 37.2422C197.852 38.7266 197.76 39.612 197.578 39.8984C197.526 39.9505 197.539 40.0938 197.617 40.3281C197.799 40.9531 197.878 42.0729 197.852 43.6875C197.852 45.276 197.76 46.2266 197.578 46.5391C197.552 46.5651 197.539 46.6302 197.539 46.7344C197.565 46.8125 197.591 46.9036 197.617 47.0078C197.799 47.6328 197.878 48.7526 197.852 50.3672C197.852 51.9557 197.76 52.9062 197.578 53.2188C197.552 53.2448 197.539 53.3099 197.539 53.4141C197.565 53.4922 197.591 53.5833 197.617 53.6875C197.799 54.3125 197.878 55.4323 197.852 57.0469C197.852 58.6354 197.76 59.5859 197.578 59.8984C197.526 59.9505 197.539 60.0938 197.617 60.3281C197.799 61.0052 197.878 62.1641 197.852 63.8047C197.852 65.4453 197.747 66.3698 197.539 66.5781C197.487 66.6302 196.354 66.6562 194.141 66.6562L190.82 66.6172L190.742 66.3047C190.56 65.6536 190.469 64.625 190.469 63.2188C190.469 61.8125 190.56 60.849 190.742 60.3281C190.794 60.1198 190.794 59.8854 190.742 59.625C190.56 58.9219 190.469 57.8932 190.469 56.5391C190.469 55.1589 190.56 54.1953 190.742 53.6484C190.794 53.4401 190.794 53.2188 190.742 52.9844C190.56 52.2812 190.469 51.2396 190.469 49.8594C190.469 48.4792 190.56 47.5156 190.742 46.9688C190.794 46.7604 190.794 46.5391 190.742 46.3047C190.56 45.6016 190.469 44.5729 190.469 43.2188C190.469 41.8385 190.56 40.875 190.742 40.3281C190.794 40.1198 190.794 39.8854 190.742 39.625C190.56 38.9219 190.469 37.8932 190.469 36.5391C190.469 35.1589 190.56 34.1953 190.742 33.6484L190.82 33.3359H189.727C188.971 33.3359 188.62 33.362 188.672 33.4141C188.854 33.7005 188.958 34.599 188.984 36.1094C189.01 37.6198 188.945 38.7526 188.789 39.5078C188.737 39.8464 188.737 40.1719 188.789 40.4844C188.971 41.2656 189.049 42.4115 189.023 43.9219C188.997 45.4062 188.88 46.2917 188.672 46.5781C188.62 46.6302 188.229 46.6562 187.5 46.6562C186.797 46.6562 186.445 46.6953 186.445 46.7734C186.628 47.0599 186.732 47.9583 186.758 49.4688C186.784 50.9531 186.719 52.0729 186.562 52.8281C186.51 53.1667 186.51 53.5052 186.562 53.8438C186.745 54.651 186.81 55.8229 186.758 57.3594C186.732 58.8698 186.628 59.7161 186.445 59.8984C186.393 59.9505 185.625 59.9766 184.141 59.9766L181.914 59.9375L181.836 59.625C181.654 58.9479 181.562 57.9193 181.562 56.5391C181.562 55.1328 181.654 54.1693 181.836 53.6484C181.888 53.4401 181.888 53.2188 181.836 52.9844C181.654 52.2812 181.562 51.2396 181.562 49.8594C181.562 48.4792 181.654 47.5156 181.836 46.9688L181.953 46.6953L180.82 46.6562L179.688 46.6172L179.609 46.3047C179.427 45.6536 179.336 44.625 179.336 43.2188C179.336 41.8125 179.427 40.849 179.609 40.3281C179.688 40.0677 179.701 39.8333 179.648 39.625C179.466 38.9219 179.362 37.8932 179.336 36.5391C179.336 35.1589 179.427 34.1953 179.609 33.6484L179.727 33.3359H178.633C177.878 33.3359 177.526 33.362 177.578 33.4141C177.786 33.7786 177.891 34.8464 177.891 36.6172C177.891 38.4922 177.786 39.5859 177.578 39.8984C177.526 39.9505 177.539 40.0938 177.617 40.3281C177.799 40.9531 177.878 42.0729 177.852 43.6875C177.852 45.276 177.76 46.2266 177.578 46.5391C177.552 46.5651 177.539 46.6302 177.539 46.7344C177.565 46.8125 177.591 46.9036 177.617 47.0078C177.799 47.6328 177.878 48.7526 177.852 50.3672C177.852 51.9557 177.76 52.9062 177.578 53.2188C177.552 53.2448 177.539 53.3099 177.539 53.4141C177.565 53.4922 177.591 53.5833 177.617 53.6875C177.799 54.3125 177.878 55.4323 177.852 57.0469C177.852 58.6354 177.76 59.5859 177.578 59.8984C177.526 59.9505 177.539 60.0938 177.617 60.3281C177.799 61.0052 177.878 62.1641 177.852 63.8047C177.852 65.4453 177.747 66.3698 177.539 66.5781C177.487 66.6302 176.354 66.6562 174.141 66.6562L170.82 66.6172L170.742 66.3047C170.56 65.6536 170.469 64.625 170.469 63.2188C170.469 61.8125 170.56 60.849 170.742 60.3281C170.794 60.1198 170.794 59.8854 170.742 59.625C170.56 58.9219 170.469 57.8932 170.469 56.5391C170.469 55.1589 170.56 54.1953 170.742 53.6484C170.794 53.4401 170.794 53.2188 170.742 52.9844C170.56 52.2812 170.469 51.2396 170.469 49.8594C170.469 48.4792 170.56 47.5156 170.742 46.9688C170.794 46.7604 170.794 46.5391 170.742 46.3047C170.56 45.6016 170.469 44.5729 170.469 43.2188C170.469 41.8385 170.56 40.875 170.742 40.3281C170.794 40.1198 170.794 39.8854 170.742 39.625C170.56 38.9219 170.469 37.8932 170.469 36.5391C170.469 35.1589 170.56 34.1953 170.742 33.6484C170.794 33.4401 170.794 33.2188 170.742 32.9844C170.56 32.2812 170.469 31.2396 170.469 29.8594C170.469 28.4792 170.56 27.5156 170.742 26.9688C170.794 26.7604 170.794 26.5391 170.742 26.3047C170.56 25.5755 170.469 24.5078 170.469 23.1016C170.469 21.6953 170.56 20.7448 170.742 20.25ZM211.016 33.5703L211.094 33.3359H217.773C222.201 33.3359 224.44 33.362 224.492 33.4141C224.648 33.6745 224.753 34.4427 224.805 35.7188C224.857 36.9948 224.831 37.9974 224.727 38.7266C224.596 39.4557 224.518 39.8464 224.492 39.8984L224.609 39.9375C224.661 39.9375 224.753 39.9505 224.883 39.9766C225.013 39.9766 225.169 39.9896 225.352 40.0156C225.534 40.0156 225.729 40.0156 225.938 40.0156C226.172 40.0156 226.406 40.0156 226.641 40.0156C228.125 40.0156 228.893 40.0417 228.945 40.0938C229.076 40.3281 229.167 41.0964 229.219 42.3984C229.297 43.6745 229.284 44.638 229.18 45.2891C229.154 45.3672 229.128 45.5104 229.102 45.7188C229.076 45.901 229.062 46.0182 229.062 46.0703C228.984 46.5651 228.971 46.9297 229.023 47.1641C229.18 47.8672 229.245 48.8177 229.219 50.0156C229.219 51.2135 229.154 52.151 229.023 52.8281C228.971 53.1667 228.971 53.5052 229.023 53.8438C229.206 54.625 229.284 55.7578 229.258 57.2422C229.232 58.7266 229.128 59.612 228.945 59.8984L229.883 60.0156H230C230.729 60.0156 231.12 60.0417 231.172 60.0938C231.432 60.5104 231.536 61.7344 231.484 63.7656C231.432 65.4583 231.315 66.3958 231.133 66.5781C231.081 66.6302 229.948 66.6562 227.734 66.6562L224.414 66.6172L224.336 66.3047C224.154 65.6536 224.062 64.625 224.062 63.2188C224.062 61.8125 224.154 60.849 224.336 60.3281L224.414 60.0156L223.32 59.9766L222.188 59.9375L222.109 59.625C221.927 58.9479 221.836 57.9193 221.836 56.5391C221.836 55.1589 221.927 54.1953 222.109 53.6484L222.227 53.3359H217.773C217.435 53.3359 217.096 53.3359 216.758 53.3359C216.419 53.3359 216.107 53.3359 215.82 53.3359C215.534 53.3359 215.26 53.349 215 53.375C214.74 53.375 214.505 53.375 214.297 53.375C214.115 53.375 213.945 53.375 213.789 53.375C213.633 53.375 213.516 53.375 213.438 53.375L213.359 53.4141C213.594 53.8307 213.711 54.8984 213.711 56.6172C213.711 58.388 213.594 59.4818 213.359 59.8984C213.333 59.9245 213.516 59.9505 213.906 59.9766C214.297 59.9766 214.844 59.9896 215.547 60.0156C216.276 60.0156 217.018 60.0156 217.773 60.0156H222.227L222.305 60.25C222.513 60.7708 222.604 61.9036 222.578 63.6484C222.552 65.3932 222.435 66.3698 222.227 66.5781C222.174 66.6302 219.935 66.6562 215.508 66.6562L208.828 66.6172L208.75 66.3047C208.568 65.6276 208.477 64.599 208.477 63.2188C208.503 61.8125 208.607 60.849 208.789 60.3281L208.867 60.0156L207.734 59.9766L206.641 59.9375L206.523 59.625C206.211 58.5052 206.159 56.9167 206.367 54.8594C206.445 54.0781 206.536 53.6354 206.641 53.5312C206.745 53.401 207.122 53.3359 207.773 53.3359H208.867L208.789 52.9844C208.607 52.2552 208.516 51.1875 208.516 49.7812C208.516 48.375 208.607 47.4245 208.789 46.9297L208.906 46.6562H215.547H222.188L222.109 46.3047C221.927 45.6016 221.836 44.5599 221.836 43.1797C221.836 41.7995 221.927 40.8359 222.109 40.2891L222.227 40.0156L216.641 39.9766L211.055 39.9375L210.977 39.625C210.794 38.9479 210.703 37.8932 210.703 36.4609C210.729 35.0026 210.833 34.0391 211.016 33.5703ZM244.297 33.5703L244.375 33.3359H252.148C257.331 33.3359 259.948 33.362 260 33.4141C260.156 33.6745 260.26 34.4427 260.312 35.7188C260.365 36.9948 260.339 37.9974 260.234 38.7266C260.104 39.4557 260.026 39.8464 260 39.8984L260.078 39.9375C260.156 39.9375 260.26 39.9505 260.391 39.9766C260.521 39.9766 260.677 39.9896 260.859 40.0156C261.042 40.0156 261.237 40.0156 261.445 40.0156C261.68 40.0156 261.914 40.0156 262.148 40.0156C263.633 40.0156 264.401 40.0417 264.453 40.0938C264.609 40.3542 264.714 41.1224 264.766 42.3984C264.818 43.6745 264.792 44.6771 264.688 45.4062C264.557 46.1354 264.466 46.526 264.414 46.5781C264.362 46.6302 263.229 46.6562 261.016 46.6562L257.695 46.6172L257.617 46.3047C257.435 45.6536 257.344 44.625 257.344 43.2188C257.344 41.8125 257.435 40.849 257.617 40.3281L257.695 40.0156H252.148C251.549 40.0156 250.964 40.0156 250.391 40.0156C249.844 40.0156 249.336 40.0286 248.867 40.0547C248.424 40.0547 248.034 40.0547 247.695 40.0547C247.357 40.0547 247.096 40.0677 246.914 40.0938H246.641C246.875 40.5104 246.992 41.5781 246.992 43.2969C246.992 45.0677 246.875 46.1615 246.641 46.5781C246.589 46.6302 246.211 46.6562 245.508 46.6562C244.805 46.6562 244.453 46.6953 244.453 46.7734C244.661 47.138 244.766 48.1927 244.766 49.9375C244.766 51.7865 244.661 52.8932 244.453 53.2578C244.401 53.3099 244.753 53.3359 245.508 53.3359C246.211 53.3359 246.589 53.362 246.641 53.4141C246.797 53.6745 246.901 54.4427 246.953 55.7188C247.005 56.9948 246.979 57.9974 246.875 58.7266C246.745 59.4557 246.667 59.8464 246.641 59.8984C246.615 59.9245 246.836 59.9505 247.305 59.9766C247.799 59.9766 248.49 59.9896 249.375 60.0156C250.286 60.0156 251.211 60.0156 252.148 60.0156H257.695L257.617 59.625C257.435 58.8958 257.344 57.8281 257.344 56.4219C257.344 55.0156 257.435 54.0651 257.617 53.5703L257.734 53.3359H261.055C263.268 53.3359 264.401 53.362 264.453 53.4141C264.609 53.6745 264.714 54.4427 264.766 55.7188C264.818 56.9948 264.779 57.9974 264.648 58.7266C264.622 58.8568 264.596 58.974 264.57 59.0781C264.57 59.1823 264.557 59.2734 264.531 59.3516C264.531 59.4036 264.518 59.4688 264.492 59.5469C264.492 59.599 264.492 59.651 264.492 59.7031C264.492 59.7292 264.492 59.7552 264.492 59.7812C264.492 59.8073 264.479 59.8333 264.453 59.8594V59.8984C264.375 59.9766 263.607 60.0156 262.148 60.0156C261.758 60.0156 261.393 60.0286 261.055 60.0547C260.716 60.0547 260.456 60.0677 260.273 60.0938H260C260.208 60.4583 260.299 61.5781 260.273 63.4531C260.273 65.3281 260.169 66.3698 259.961 66.5781C259.909 66.6302 257.292 66.6562 252.109 66.6562L244.336 66.6172L244.258 66.3047C244.076 65.6276 243.984 64.5859 243.984 63.1797C244.01 61.7734 244.115 60.8099 244.297 60.2891L244.375 60.0156L242.148 59.9766L239.922 59.9375L239.805 59.625C239.622 58.9479 239.531 57.9193 239.531 56.5391C239.557 55.1328 239.661 54.1693 239.844 53.6484L239.922 53.3359L238.828 53.2969H237.695L237.617 52.9844C237.279 51.7865 237.214 50.1849 237.422 48.1797C237.5 47.3984 237.591 46.9557 237.695 46.8516C237.799 46.7214 238.177 46.6562 238.828 46.6562H239.922L239.844 46.3047C239.661 45.5755 239.57 44.5078 239.57 43.1016C239.57 41.6953 239.661 40.7448 239.844 40.25L239.961 40.0156H242.148H244.375L244.258 39.625C244.076 38.9219 243.984 37.8672 243.984 36.4609C244.01 35.0286 244.115 34.0651 244.297 33.5703ZM279.492 33.5703L279.57 33.3359H286.25C290.677 33.3359 292.917 33.362 292.969 33.4141C293.125 33.6745 293.229 34.4427 293.281 35.7188C293.333 36.9948 293.307 37.9974 293.203 38.7266C293.073 39.4557 292.995 39.8464 292.969 39.8984L293.047 39.9375C293.125 39.9375 293.229 39.9505 293.359 39.9766C293.49 39.9766 293.646 39.9896 293.828 40.0156C294.01 40.0156 294.206 40.0156 294.414 40.0156C294.648 40.0156 294.883 40.0156 295.117 40.0156C296.602 40.0156 297.37 40.0417 297.422 40.0938C297.448 40.1198 297.487 40.276 297.539 40.5625C297.878 42.3594 297.865 44.2214 297.5 46.1484C297.448 46.513 297.448 46.8516 297.5 47.1641C297.63 47.8411 297.695 48.7917 297.695 50.0156C297.695 51.2135 297.63 52.151 297.5 52.8281C297.448 53.1667 297.448 53.5052 297.5 53.8438C297.656 54.599 297.721 55.7318 297.695 57.2422C297.695 58.7266 297.604 59.612 297.422 59.8984C297.37 59.9505 297.383 60.0938 297.461 60.3281C297.643 61.0052 297.721 62.1641 297.695 63.8047C297.695 65.4453 297.591 66.3698 297.383 66.5781C297.331 66.6302 296.198 66.6562 293.984 66.6562L290.664 66.6172L290.586 66.3047C290.404 65.6536 290.312 64.625 290.312 63.2188C290.312 61.8125 290.404 60.849 290.586 60.3281C290.638 60.1198 290.638 59.8854 290.586 59.625C290.404 58.9219 290.312 57.8932 290.312 56.5391C290.312 55.1589 290.404 54.1953 290.586 53.6484C290.638 53.4401 290.638 53.2188 290.586 52.9844C290.404 52.2812 290.312 51.2396 290.312 49.8594C290.312 48.4792 290.404 47.5156 290.586 46.9688C290.638 46.7604 290.638 46.5391 290.586 46.3047C290.404 45.6016 290.312 44.5599 290.312 43.1797C290.312 41.7995 290.404 40.8359 290.586 40.2891L290.664 40.0156L285.117 39.9766L279.531 39.9375L279.453 39.625C279.271 38.9479 279.18 37.8932 279.18 36.4609C279.206 35.0026 279.31 34.0391 279.492 33.5703ZM270.586 20.25L270.703 20.0156H274.023C276.237 20.0156 277.37 20.0417 277.422 20.0938C277.448 20.1198 277.487 20.276 277.539 20.5625C277.878 22.3594 277.865 24.2214 277.5 26.1484C277.448 26.513 277.448 26.8516 277.5 27.1641C277.63 27.8411 277.695 28.7917 277.695 30.0156C277.695 31.2135 277.63 32.151 277.5 32.8281C277.448 33.1667 277.448 33.5052 277.5 33.8438C277.682 34.625 277.76 35.7578 277.734 37.2422C277.708 38.7266 277.604 39.612 277.422 39.8984L278.359 40.0156H278.477C278.555 40.0156 278.672 40.0156 278.828 40.0156C279.193 40.0156 279.414 40.0286 279.492 40.0547C279.57 40.0547 279.635 40.1198 279.688 40.25C279.818 40.5885 279.896 41.3568 279.922 42.5547C279.974 43.7266 279.948 44.6641 279.844 45.3672C279.74 46.0964 279.661 46.5 279.609 46.5781C279.557 46.6302 279.18 46.6562 278.477 46.6562H277.383L277.461 47.0078C277.643 47.6328 277.721 48.7526 277.695 50.3672C277.695 51.9557 277.604 52.9062 277.422 53.2188C277.396 53.2448 277.383 53.3099 277.383 53.4141C277.409 53.4922 277.435 53.5833 277.461 53.6875C277.643 54.3125 277.721 55.4323 277.695 57.0469C277.695 58.6354 277.604 59.5859 277.422 59.8984C277.37 59.9505 277.383 60.0938 277.461 60.3281C277.643 61.0052 277.721 62.1641 277.695 63.8047C277.695 65.4453 277.591 66.3698 277.383 66.5781C277.331 66.6302 276.198 66.6562 273.984 66.6562L270.664 66.6172L270.586 66.3047C270.404 65.6536 270.312 64.625 270.312 63.2188C270.312 61.8125 270.404 60.849 270.586 60.3281C270.638 60.1198 270.638 59.8854 270.586 59.625C270.404 58.9219 270.312 57.8932 270.312 56.5391C270.312 55.1589 270.404 54.1953 270.586 53.6484C270.638 53.4401 270.638 53.2188 270.586 52.9844C270.404 52.2812 270.312 51.2396 270.312 49.8594C270.312 48.4792 270.404 47.5156 270.586 46.9688C270.638 46.7604 270.638 46.5391 270.586 46.3047C270.404 45.6016 270.312 44.5729 270.312 43.2188C270.312 41.8385 270.404 40.875 270.586 40.3281C270.638 40.1198 270.638 39.8854 270.586 39.625C270.404 38.9219 270.312 37.8932 270.312 36.5391C270.312 35.1589 270.404 34.1953 270.586 33.6484C270.638 33.4401 270.638 33.2188 270.586 32.9844C270.404 32.2812 270.312 31.2396 270.312 29.8594C270.312 28.4792 270.404 27.5156 270.586 26.9688C270.638 26.7604 270.638 26.5391 270.586 26.3047C270.404 25.5755 270.312 24.5078 270.312 23.1016C270.312 21.6953 270.404 20.7448 270.586 20.25ZM310.547 33.5703L310.625 33.3359H316.211C319.883 33.3359 321.745 33.362 321.797 33.4141C321.823 33.4401 321.862 33.5964 321.914 33.8828C322.253 35.7578 322.253 37.6328 321.914 39.5078C321.862 39.8464 321.862 40.1719 321.914 40.4844C322.044 41.1615 322.109 42.112 322.109 43.3359C322.109 44.5599 322.044 45.4974 321.914 46.1484C321.862 46.487 321.862 46.8255 321.914 47.1641C322.044 47.8411 322.109 48.7917 322.109 50.0156C322.109 51.2135 322.044 52.151 321.914 52.8281C321.862 53.1667 321.862 53.5052 321.914 53.8438C322.096 54.625 322.174 55.7578 322.148 57.2422C322.122 58.7266 322.005 59.612 321.797 59.8984L321.953 59.9375C322.057 59.9375 322.214 59.9505 322.422 59.9766C322.63 59.9766 322.865 59.9896 323.125 60.0156C323.385 60.0156 323.685 60.0156 324.023 60.0156C324.388 60.0156 324.74 60.0156 325.078 60.0156C327.292 60.0156 328.424 60.0417 328.477 60.0938C328.633 60.3542 328.737 61.1224 328.789 62.3984C328.841 63.6745 328.815 64.6771 328.711 65.4062C328.581 66.1354 328.49 66.526 328.438 66.5781C328.385 66.6302 325.026 66.6562 318.359 66.6562L308.359 66.6172L308.281 66.3047C308.099 65.6276 308.008 64.5729 308.008 63.1406C308.034 61.6823 308.138 60.7188 308.32 60.25L308.438 60.0156H311.758H315.078L314.961 59.625C314.779 58.9219 314.688 57.8932 314.688 56.5391C314.688 55.1589 314.779 54.1953 314.961 53.6484C315.013 53.4401 315.013 53.2188 314.961 52.9844C314.779 52.2812 314.688 51.2396 314.688 49.8594C314.688 48.4792 314.779 47.5156 314.961 46.9688C315.013 46.7604 315.013 46.5391 314.961 46.3047C314.779 45.6016 314.688 44.5599 314.688 43.1797C314.688 41.7995 314.779 40.8359 314.961 40.2891L315.078 40.0156L312.852 39.9766L310.586 39.9375L310.508 39.625C310.326 38.9479 310.234 37.8932 310.234 36.4609C310.26 35.0026 310.365 34.0391 310.547 33.5703ZM315 20.25L315.078 20.0156H318.398C320.612 20.0156 321.745 20.0417 321.797 20.0938C321.927 20.3281 322.018 21.0964 322.07 22.3984C322.148 23.6745 322.135 24.638 322.031 25.2891C322.005 25.3672 321.979 25.5104 321.953 25.7188C321.927 25.901 321.914 26.0182 321.914 26.0703C321.862 26.3568 321.81 26.526 321.758 26.5781C321.706 26.6302 320.573 26.6562 318.359 26.6562L315.039 26.6172L314.961 26.3047C314.779 25.6276 314.688 24.5729 314.688 23.1406C314.714 21.6823 314.818 20.7188 315 20.25ZM346.055 33.5703L346.133 33.3359H352.812C357.24 33.3359 359.479 33.362 359.531 33.4141C359.688 33.6745 359.792 34.4427 359.844 35.7188C359.896 36.9948 359.87 37.9974 359.766 38.7266C359.635 39.4557 359.557 39.8464 359.531 39.8984L359.609 39.9375C359.688 39.9375 359.792 39.9505 359.922 39.9766C360.052 39.9766 360.208 39.9896 360.391 40.0156C360.573 40.0156 360.768 40.0156 360.977 40.0156C361.211 40.0156 361.445 40.0156 361.68 40.0156C363.164 40.0156 363.932 40.0417 363.984 40.0938C364.01 40.1198 364.049 40.276 364.102 40.5625C364.44 42.3594 364.427 44.2214 364.062 46.1484C364.01 46.513 364.01 46.8516 364.062 47.1641C364.193 47.8411 364.258 48.7917 364.258 50.0156C364.258 51.2135 364.193 52.151 364.062 52.8281C364.01 53.1667 364.01 53.5052 364.062 53.8438C364.219 54.599 364.284 55.7318 364.258 57.2422C364.258 58.7266 364.167 59.612 363.984 59.8984C363.932 59.9505 363.945 60.0938 364.023 60.3281C364.206 61.0052 364.284 62.1641 364.258 63.8047C364.258 65.4453 364.154 66.3698 363.945 66.5781C363.893 66.6302 362.76 66.6562 360.547 66.6562L357.227 66.6172L357.148 66.3047C356.966 65.6536 356.875 64.625 356.875 63.2188C356.875 61.8125 356.966 60.849 357.148 60.3281C357.201 60.1198 357.201 59.8854 357.148 59.625C356.966 58.9219 356.875 57.8932 356.875 56.5391C356.875 55.1589 356.966 54.1953 357.148 53.6484C357.201 53.4401 357.201 53.2188 357.148 52.9844C356.966 52.2812 356.875 51.2396 356.875 49.8594C356.875 48.4792 356.966 47.5156 357.148 46.9688C357.201 46.7604 357.201 46.5391 357.148 46.3047C356.966 45.6016 356.875 44.5599 356.875 43.1797C356.875 41.7995 356.966 40.8359 357.148 40.2891L357.227 40.0156L351.68 39.9766L346.094 39.9375L346.016 39.625C345.833 38.9479 345.742 37.8932 345.742 36.4609C345.768 35.0026 345.872 34.0391 346.055 33.5703ZM337.148 33.5703L337.266 33.3359H340.586C342.799 33.3359 343.932 33.362 343.984 33.4141C344.141 33.6745 344.245 34.4427 344.297 35.7188C344.349 36.9948 344.31 37.9974 344.18 38.7266C344.154 38.8568 344.128 38.974 344.102 39.0781C344.102 39.1823 344.089 39.2734 344.062 39.3516C344.062 39.4036 344.049 39.4688 344.023 39.5469C344.023 39.599 344.023 39.651 344.023 39.7031C344.023 39.7292 344.023 39.7552 344.023 39.7812C344.023 39.8073 344.01 39.8333 343.984 39.8594V39.8984L344.922 40.0156H345.039C345.117 40.0156 345.234 40.0156 345.391 40.0156C345.755 40.0156 345.977 40.0286 346.055 40.0547C346.133 40.0547 346.198 40.1198 346.25 40.25C346.38 40.5885 346.471 41.3698 346.523 42.5938C346.576 43.8177 346.549 44.7161 346.445 45.2891C346.419 45.3411 346.393 45.4714 346.367 45.6797C346.341 45.862 346.328 45.9792 346.328 46.0312C346.276 46.3698 346.237 46.5521 346.211 46.5781C346.159 46.6302 345.768 46.6562 345.039 46.6562C344.336 46.6562 343.984 46.6953 343.984 46.7734C344.167 47.0599 344.258 47.9583 344.258 49.4688C344.284 50.9531 344.219 52.0729 344.062 52.8281C344.01 53.1667 344.01 53.5052 344.062 53.8438C344.219 54.599 344.284 55.7318 344.258 57.2422C344.258 58.7266 344.167 59.612 343.984 59.8984C343.932 59.9505 343.945 60.0938 344.023 60.3281C344.206 61.0052 344.284 62.1641 344.258 63.8047C344.258 65.4453 344.154 66.3698 343.945 66.5781C343.893 66.6302 342.76 66.6562 340.547 66.6562L337.227 66.6172L337.148 66.3047C336.966 65.6536 336.875 64.625 336.875 63.2188C336.875 61.8125 336.966 60.849 337.148 60.3281C337.201 60.1198 337.201 59.8854 337.148 59.625C336.966 58.9219 336.875 57.8932 336.875 56.5391C336.875 55.1589 336.966 54.1953 337.148 53.6484C337.201 53.4401 337.201 53.2188 337.148 52.9844C336.966 52.2812 336.875 51.2396 336.875 49.8594C336.875 48.4792 336.966 47.5156 337.148 46.9688C337.201 46.7604 337.201 46.5391 337.148 46.3047C336.966 45.6016 336.875 44.5729 336.875 43.2188C336.875 41.8385 336.966 40.875 337.148 40.3281C337.201 40.1198 337.201 39.8854 337.148 39.625C336.966 38.8958 336.875 37.8281 336.875 36.4219C336.875 35.0156 336.966 34.0651 337.148 33.5703ZM377.422 33.5703L377.5 33.3359H385.273C390.456 33.3359 393.073 33.362 393.125 33.4141C393.281 33.6745 393.385 34.4427 393.438 35.7188C393.49 36.9948 393.464 37.9974 393.359 38.7266C393.229 39.4557 393.151 39.8464 393.125 39.8984L393.203 39.9375C393.281 39.9375 393.385 39.9505 393.516 39.9766C393.646 39.9766 393.802 39.9896 393.984 40.0156C394.167 40.0156 394.362 40.0156 394.57 40.0156C394.805 40.0156 395.039 40.0156 395.273 40.0156C396.758 40.0156 397.526 40.0417 397.578 40.0938C397.604 40.1198 397.643 40.276 397.695 40.5625C398.034 42.3594 398.021 44.2214 397.656 46.1484C397.604 46.513 397.604 46.8516 397.656 47.1641C397.839 47.9453 397.917 49.0911 397.891 50.6016C397.865 52.0859 397.76 52.9714 397.578 53.2578C397.526 53.3099 394.544 53.3359 388.633 53.3359C387.956 53.3359 387.279 53.3359 386.602 53.3359C385.924 53.3359 385.299 53.3359 384.727 53.3359C384.154 53.3359 383.607 53.349 383.086 53.375C382.565 53.375 382.096 53.375 381.68 53.375C381.289 53.375 380.951 53.375 380.664 53.375C380.378 53.375 380.156 53.375 380 53.375L379.766 53.4141C380 53.8307 380.117 54.8984 380.117 56.6172C380.117 58.388 380 59.4818 379.766 59.8984C379.74 59.9245 380.065 59.9505 380.742 59.9766C381.419 59.9766 382.383 59.9896 383.633 60.0156C384.883 60.0156 386.172 60.0156 387.5 60.0156C392.682 60.0156 395.299 60.0417 395.352 60.0938C395.508 60.3542 395.612 61.1224 395.664 62.3984C395.716 63.6745 395.69 64.6771 395.586 65.4062C395.456 66.1354 395.365 66.526 395.312 66.5781C395.26 66.6302 392.279 66.6562 386.367 66.6562L377.461 66.6172L377.383 66.3047C377.201 65.6276 377.109 64.5859 377.109 63.1797C377.135 61.7734 377.24 60.8099 377.422 60.2891L377.5 60.0156L375.273 59.9766L373.047 59.9375L372.93 59.625C372.747 58.9479 372.656 57.9193 372.656 56.5391C372.682 55.1328 372.786 54.1693 372.969 53.6484L373.047 53.3359L371.953 53.2969H370.82L370.742 52.9844C370.404 51.7865 370.339 50.1849 370.547 48.1797C370.625 47.3984 370.716 46.9557 370.82 46.8516C370.924 46.7214 371.302 46.6562 371.953 46.6562H373.047L372.969 46.3047C372.786 45.5755 372.695 44.5078 372.695 43.1016C372.695 41.6953 372.786 40.7448 372.969 40.25L373.086 40.0156H375.273H377.5L377.383 39.625C377.201 38.9219 377.109 37.8672 377.109 36.4609C377.135 35.0286 377.24 34.0651 377.422 33.5703ZM390.742 40.3281L390.82 40.0156H385.273C384.674 40.0156 384.089 40.0156 383.516 40.0156C382.969 40.0156 382.461 40.0286 381.992 40.0547C381.549 40.0547 381.159 40.0547 380.82 40.0547C380.482 40.0547 380.221 40.0677 380.039 40.0938H379.766C380 40.5104 380.117 41.5781 380.117 43.2969C380.117 45.0677 380 46.1615 379.766 46.5781H380.469C380.964 46.6042 381.641 46.6302 382.5 46.6562C383.359 46.6562 384.284 46.6562 385.273 46.6562H390.82L390.742 46.3047C390.56 45.6016 390.469 44.5729 390.469 43.2188C390.469 41.8385 390.56 40.875 390.742 40.3281Z" transform="translate(-4 -20)" fill="#3E4BF9"/>
</svg>
